<svg width="155" height="63" viewBox="0 0 155 63" fill="none" xmlns="http://www.w3.org/2000/svg">
<path d="M53.8389 22.2541C52.1802 24.2338 50.3042 26.4938 43.6264 26.8223L40.9242 26.822L34.5059 26.1048C34.2248 26.076 33.9804 25.8994 33.8646 25.6413C33.7489 25.3833 33.7795 25.0831 33.9448 24.8538C34.1102 24.6245 34.7597 24.8252 35.0408 24.8539C36.3743 24.9149 37.6275 24.965 38.8005 25.0043C39.7872 25.0374 41.6486 24.9876 44.3847 24.8552C50.6324 24.5319 53.8387 20.9812 53.8381 16.0006C53.8374 11.0199 50.9619 7.52503 48.529 6.19653C46.096 4.86803 42.043 4.59886 38.798 6.19524C35.553 7.79163 32.7169 12.0686 35.0399 18.3777L40.9251 34.021C44.3134 41.6138 42.1315 50.5383 35.6238 55.7048C29.1161 60.8713 19.9367 60.9665 13.3207 55.9362C6.70472 50.9058 4.33377 42.0286 7.56002 34.3672C10.7863 26.7057 18.7897 22.2075 27.0059 23.4378L35.8925 24.9326C36.1828 24.9579 36.4354 25.1414 36.5494 25.4098C36.6633 25.6782 36.62 25.9875 36.4367 26.2142C36.2535 26.4408 35.9602 26.5476 35.6742 26.4919L26.8042 25.0027C19.3009 23.8666 11.9835 27.964 9.02572 34.958C6.06799 41.952 8.22192 50.0643 14.2589 54.6679C20.296 59.2715 28.6812 59.1958 34.6319 54.4842C40.5826 49.7725 42.5858 41.6226 39.499 34.6832L33.4551 18.8906C30.782 13.4519 33.4751 8.27607 35.6172 6.19482C37.7594 4.11357 40.401 2.98042 46.1512 3.65861C51.9014 4.3368 55.3301 10.1347 55.7176 13.7872C55.9618 17.39 55.4976 20.2744 53.8389 22.2541Z" fill="#282F4E" stroke="#282F4E" stroke-width="1.50476"/>
<path d="M12.5532 48.9274C15.2513 53.7003 19.7531 55.5875 24.8837 55.5882C30.0144 55.5889 34.6871 52.297 36.537 48.4278C37.7703 45.8483 38.2683 42.7201 38.031 39.0431C33.6616 36.6493 29.4399 36.5304 25.3662 38.6866C21.2925 40.8428 16.3203 41.484 10.4498 40.6105C10.0533 42.9731 10.7545 45.7454 12.5532 48.9274Z" fill="#4433D0"/>
<path d="M81.5731 42.2364C81.5731 43.236 81.403 44.1506 81.0627 44.9801C80.7436 45.8096 80.2438 46.5221 79.5632 47.1177C78.9038 47.7132 78.0531 48.1811 77.0109 48.5214C75.9687 48.8405 74.7351 49 73.3101 49C71.6723 49 70.1729 48.681 68.8116 48.0429C67.4717 47.3835 66.3231 46.5009 65.366 45.3949L67.7588 43.0659C68.5032 43.8741 69.3859 44.5228 70.4068 45.012C71.449 45.4799 72.5018 45.7139 73.5653 45.7139C76.6493 45.7139 78.1913 44.6292 78.1913 42.4597C78.1913 42.0343 78.1063 41.6515 77.9361 41.3112C77.7659 40.9709 77.4788 40.6625 77.0747 40.386C76.6706 40.0882 76.1495 39.8117 75.5114 39.5565C74.8733 39.3013 74.0864 39.0354 73.1505 38.7589C71.9595 38.4186 70.9279 38.0676 70.0559 37.7061C69.1838 37.3445 68.4607 36.9297 67.8864 36.4618C67.3122 35.9726 66.8761 35.3877 66.5784 34.7071C66.3019 34.0265 66.1636 33.1864 66.1636 32.1867C66.1636 31.2296 66.355 30.3682 66.7379 29.6025C67.1207 28.8156 67.6418 28.1562 68.3012 27.6245C68.9605 27.0928 69.7368 26.6886 70.6301 26.4121C71.5447 26.1144 72.5125 25.9655 73.5334 25.9655C75.0648 25.9655 76.4154 26.2314 77.5852 26.7631C78.755 27.2948 79.8397 28.0392 80.8393 28.9963L78.4785 31.3891C77.7766 30.666 77.0109 30.1342 76.1814 29.7939C75.3519 29.4324 74.3841 29.2516 73.2782 29.2516C71.9595 29.2516 71.0024 29.5281 70.4068 30.0811C69.8325 30.6341 69.5454 31.2828 69.5454 32.0272C69.5454 32.41 69.6199 32.761 69.7687 33.08C69.9176 33.3778 70.1729 33.6649 70.5344 33.9414C70.896 34.1967 71.3958 34.4519 72.0339 34.7071C72.672 34.9623 73.4696 35.2282 74.4267 35.5047C75.5327 35.845 76.5217 36.196 77.3937 36.5575C78.287 36.9191 79.0421 37.3551 79.6589 37.8656C80.2757 38.376 80.7436 38.9822 81.0627 39.6841C81.403 40.386 81.5731 41.2367 81.5731 42.2364ZM96.3194 36.7171C95.6388 36.0152 94.9688 35.5047 94.3094 35.1857C93.6714 34.8454 92.9801 34.6752 92.2357 34.6752C91.0234 34.6752 90.0662 35.175 89.3644 36.1747C88.6625 37.1531 88.3115 38.5037 88.3115 40.2265C88.3115 41.056 88.3966 41.8216 88.5668 42.5235C88.7369 43.2041 88.9922 43.7997 89.3325 44.3101C89.6728 44.7993 90.0875 45.1822 90.5767 45.4587C91.0872 45.7352 91.6721 45.8734 92.3314 45.8734C93.1184 45.8734 93.7777 45.7033 94.3094 45.363C94.8624 45.0014 95.4686 44.4803 96.128 43.7997L98.2336 45.8734C97.9146 46.2988 97.5636 46.7029 97.1808 47.0858C96.7979 47.4473 96.3619 47.777 95.8727 48.0748C95.4048 48.3513 94.8731 48.5746 94.2775 48.7448C93.682 48.9149 93.0014 49 92.2357 49C91.2148 49 90.2577 48.7979 89.3644 48.3938C88.4923 47.9684 87.7266 47.3835 87.0673 46.6391C86.4292 45.8734 85.9188 44.9588 85.5359 43.8954C85.1743 42.8319 84.9936 41.6409 84.9936 40.3222C84.9936 38.9397 85.185 37.7061 85.5678 36.6213C85.9507 35.5366 86.4718 34.622 87.1311 33.8776C87.7904 33.1119 88.5668 32.5377 89.4601 32.1548C90.3534 31.7507 91.3105 31.5486 92.3314 31.5486C93.565 31.5486 94.6604 31.7932 95.6175 32.2824C96.5959 32.7504 97.4785 33.4522 98.2655 34.3881L96.3194 36.7171ZM116.063 40.1946C116.063 41.5771 115.872 42.8213 115.489 43.9273C115.106 45.012 114.574 45.9372 113.894 46.7029C113.213 47.4473 112.416 48.0216 111.501 48.4257C110.586 48.8086 109.587 49 108.502 49C107.439 49 106.46 48.7979 105.567 48.3938C104.674 47.9684 103.897 47.3729 103.238 46.6072C102.579 45.8415 102.058 44.9269 101.675 43.8635C101.313 42.8 101.132 41.609 101.132 40.2903C101.132 38.929 101.324 37.7061 101.707 36.6213C102.089 35.5366 102.611 34.622 103.27 33.8776C103.951 33.1119 104.737 32.5377 105.631 32.1548C106.545 31.7507 107.534 31.5486 108.598 31.5486C109.661 31.5486 110.65 31.7613 111.565 32.1867C112.479 32.5908 113.266 33.1651 113.926 33.9095C114.606 34.6539 115.127 35.5685 115.489 36.6532C115.872 37.7167 116.063 38.8971 116.063 40.1946ZM112.745 40.2903C112.745 38.5675 112.362 37.2062 111.597 36.2066C110.852 35.1857 109.81 34.6752 108.47 34.6752C107.215 34.6752 106.226 35.1857 105.503 36.2066C104.801 37.2062 104.45 38.5356 104.45 40.1946C104.45 42.045 104.833 43.4594 105.599 44.4378C106.365 45.3949 107.375 45.8734 108.63 45.8734C109.247 45.8734 109.81 45.7245 110.321 45.4268C110.831 45.129 111.267 44.7355 111.629 44.2463C111.99 43.7359 112.267 43.1403 112.458 42.4597C112.65 41.7791 112.745 41.056 112.745 40.2903ZM134.195 40.5455C134.195 41.9918 134.014 43.2467 133.652 44.3101C133.291 45.3523 132.801 46.2244 132.185 46.9262C131.589 47.6281 130.887 48.1492 130.079 48.4895C129.292 48.8298 128.463 49 127.591 49C126.74 49 125.942 48.8086 125.198 48.4257C124.453 48.0429 123.847 47.5962 123.379 47.0858V53.1156L120.125 54.8065V31.8996H123.379V33.4948C123.996 32.9418 124.655 32.4845 125.357 32.1229C126.059 31.7401 126.857 31.5486 127.75 31.5486C128.643 31.5486 129.483 31.7188 130.27 32.0591C131.057 32.3994 131.738 32.9311 132.312 33.6543C132.908 34.3774 133.365 35.3133 133.684 36.4618C134.024 37.5891 134.195 38.9503 134.195 40.5455ZM130.909 40.6412C130.909 38.5143 130.579 36.9723 129.919 36.0152C129.281 35.0581 128.356 34.5795 127.144 34.5795C126.357 34.5795 125.634 34.8028 124.974 35.2495C124.315 35.6749 123.773 36.1641 123.347 36.7171V43.7678C123.539 44.023 123.773 44.2782 124.049 44.5335C124.326 44.7887 124.634 45.0227 124.974 45.2353C125.315 45.448 125.676 45.6288 126.059 45.7777C126.442 45.9053 126.846 45.9691 127.271 45.9691C128.463 45.9691 129.366 45.5331 129.983 44.6611C130.6 43.7678 130.909 42.4278 130.909 40.6412ZM151.911 39.9393C151.911 40.2371 151.901 40.5242 151.879 40.8007C151.858 41.056 151.837 41.2687 151.815 41.4388H140.745C140.83 42.247 141 42.9383 141.255 43.5125C141.511 44.0868 141.83 44.5654 142.212 44.9482C142.595 45.3098 143.021 45.5863 143.489 45.7777C143.956 45.9479 144.446 46.0329 144.956 46.0329C145.658 46.0329 146.296 45.916 146.87 45.682C147.466 45.448 148.04 45.1184 148.593 44.693L150.539 46.7986C149.795 47.5005 148.965 48.0429 148.051 48.4257C147.136 48.8086 146.041 49 144.765 49C143.786 49 142.85 48.8086 141.957 48.4257C141.085 48.0429 140.319 47.4792 139.66 46.7348C139.001 45.9904 138.48 45.0758 138.097 43.9911C137.714 42.9064 137.523 41.6728 137.523 40.2903C137.523 38.8652 137.703 37.6104 138.065 36.5256C138.426 35.4409 138.926 34.537 139.564 33.8138C140.202 33.0694 140.968 32.5058 141.861 32.1229C142.776 31.7401 143.776 31.5486 144.86 31.5486C146.051 31.5486 147.083 31.772 147.955 32.2186C148.848 32.6653 149.582 33.2714 150.156 34.0371C150.752 34.8028 151.188 35.6961 151.464 36.7171C151.762 37.738 151.911 38.8121 151.911 39.9393ZM148.593 38.727C148.551 38.1527 148.444 37.6104 148.274 37.0999C148.125 36.5894 147.891 36.1428 147.572 35.7599C147.253 35.3771 146.849 35.0793 146.36 34.8666C145.892 34.6327 145.318 34.5157 144.637 34.5157C143.531 34.5157 142.648 34.8879 141.989 35.6323C141.351 36.3555 140.958 37.387 140.809 38.727H148.593Z" fill="#282F4E"/>
<path d="M81.0627 44.9801L80.9701 44.9422L80.9693 44.9442L81.0627 44.9801ZM79.5632 47.1177L79.4973 47.0424L79.4962 47.0435L79.5632 47.1177ZM77.0109 48.5214L77.0402 48.6171L77.0419 48.6165L77.0109 48.5214ZM68.8116 48.0429L68.7675 48.1326L68.7692 48.1334L68.8116 48.0429ZM65.366 45.3949L65.2963 45.3232L65.2287 45.389L65.2904 45.4603L65.366 45.3949ZM67.7588 43.0659L67.8324 42.9981L67.7627 42.9225L67.6891 42.9942L67.7588 43.0659ZM70.4068 45.012L70.3636 45.1022L70.3659 45.1032L70.4068 45.012ZM77.9361 41.3112L77.8467 41.3559V41.3559L77.9361 41.3112ZM77.0747 40.386L77.0153 40.4665L77.0182 40.4685L77.0747 40.386ZM75.5114 39.5565L75.5486 39.4636L75.5114 39.5565ZM73.1505 38.7589L73.1789 38.663L73.178 38.6627L73.1505 38.7589ZM70.0559 37.7061L70.0942 37.6137L70.0559 37.7061ZM67.8864 36.4618L67.8216 36.538L67.8233 36.5393L67.8864 36.4618ZM66.5784 34.7071L66.4857 34.7448L66.4868 34.7472L66.5784 34.7071ZM66.7379 29.6025L66.8273 29.6472L66.8278 29.6463L66.7379 29.6025ZM68.3012 27.6245L68.2384 27.5466H68.2384L68.3012 27.6245ZM70.6301 26.4121L70.6597 26.5077L70.6611 26.5072L70.6301 26.4121ZM77.5852 26.7631L77.6265 26.672V26.672L77.5852 26.7631ZM80.8393 28.9963L80.9105 29.0666L80.9818 28.9943L80.9085 28.9241L80.8393 28.9963ZM78.4785 31.3891L78.4067 31.4588L78.4779 31.5321L78.5496 31.4594L78.4785 31.3891ZM76.1814 29.7939L76.1414 29.8856L76.1434 29.8865L76.1814 29.7939ZM70.4068 30.0811L70.3388 30.0078L70.3375 30.009L70.4068 30.0811ZM69.7687 33.08L69.6781 33.1223L69.6793 33.1247L69.7687 33.08ZM70.5344 33.9414L70.4736 34.0209L70.4768 34.0231L70.5344 33.9414ZM72.0339 34.7071L71.9968 34.8V34.8L72.0339 34.7071ZM74.4267 35.5047L74.4561 35.4091L74.4544 35.4086L74.4267 35.5047ZM77.3937 36.5575L77.3554 36.6499L77.3562 36.6502L77.3937 36.5575ZM79.6589 37.8656L79.5951 37.9426L79.6589 37.8656ZM81.0627 39.6841L80.9716 39.7255L80.9727 39.7277L81.0627 39.6841ZM81.4731 42.2364C81.4731 43.2245 81.305 44.126 80.9701 44.9422L81.1552 45.0181C81.501 44.1752 81.6731 43.2476 81.6731 42.2364H81.4731ZM80.9693 44.9442C80.6562 45.7583 80.166 46.4574 79.4973 47.0424L79.629 47.1929C80.3216 46.5869 80.831 45.8609 81.156 45.016L80.9693 44.9442ZM79.4962 47.0435C78.8494 47.6277 78.0117 48.0894 76.9798 48.4264L77.0419 48.6165C78.0944 48.2728 78.9583 47.7987 79.6302 47.1919L79.4962 47.0435ZM76.9816 48.4258C75.9513 48.7412 74.728 48.9 73.3101 48.9V49.1C74.7421 49.1 75.9861 48.9397 77.0402 48.6171L76.9816 48.4258ZM73.3101 48.9C71.6857 48.9 70.2009 48.5836 68.8541 47.9523L68.7692 48.1334C70.1448 48.7783 71.659 49.1 73.3101 49.1V48.9ZM68.8558 47.9532C67.5276 47.2996 66.3898 46.4251 65.4416 45.3294L65.2904 45.4603C66.2565 46.5766 67.4158 47.4675 68.7675 48.1326L68.8558 47.9532ZM65.4358 45.4665L67.8286 43.1376L67.6891 42.9942L65.2963 45.3232L65.4358 45.4665ZM67.6853 43.1336C68.4385 43.9515 69.3316 44.6077 70.3636 45.1022L70.45 44.9218C69.4402 44.438 68.5679 43.7968 67.8324 42.9981L67.6853 43.1336ZM70.3659 45.1032C71.42 45.5765 72.4867 45.8139 73.5653 45.8139V45.6139C72.517 45.6139 71.4781 45.3834 70.4478 44.9208L70.3659 45.1032ZM73.5653 45.8139C75.116 45.8139 76.2968 45.5417 77.0924 44.9821C77.8943 44.418 78.2913 43.5713 78.2913 42.4597H78.0913C78.0913 43.5176 77.7174 44.298 76.9773 44.8186C76.2308 45.3437 75.0986 45.6139 73.5653 45.6139V45.8139ZM78.2913 42.4597C78.2913 42.0207 78.2034 41.6222 78.0255 41.2665L77.8467 41.3559C78.0091 41.6808 78.0913 42.048 78.0913 42.4597H78.2913ZM78.0255 41.2665C77.8459 40.9072 77.5454 40.5869 77.1312 40.3034L77.0182 40.4685C77.4122 40.7381 77.686 41.0346 77.8467 41.3559L78.0255 41.2665ZM77.134 40.3055C76.7211 40.0012 76.1918 39.7209 75.5486 39.4636L75.4743 39.6493C76.1071 39.9025 76.6201 40.1752 77.0154 40.4665L77.134 40.3055ZM75.5486 39.4636C74.9067 39.2069 74.1166 38.94 73.1789 38.663L73.1222 38.8548C74.0562 39.1307 74.84 39.3956 75.4743 39.6493L75.5486 39.4636ZM73.178 38.6627C71.9896 38.3232 70.9618 37.9734 70.0942 37.6137L70.0176 37.7984C70.894 38.1619 71.9294 38.514 73.1231 38.855L73.178 38.6627ZM70.0942 37.6137C69.2288 37.2549 68.5146 36.8447 67.9496 36.3843L67.8233 36.5393C68.4068 37.0148 69.1389 37.4341 70.0176 37.7984L70.0942 37.6137ZM67.9513 36.3857C67.3884 35.9062 66.9616 35.3335 66.67 34.667L66.4868 34.7472C66.7907 35.4419 67.236 36.0391 67.8216 36.5379L67.9513 36.3857ZM66.671 34.6695C66.4008 34.0043 66.2636 33.1778 66.2636 32.1867H66.0636C66.0636 33.1949 66.203 34.0487 66.4857 34.7448L66.671 34.6695ZM66.2636 32.1867C66.2636 31.2433 66.4522 30.3975 66.8273 29.6472L66.6484 29.5578C66.2579 30.3389 66.0636 31.2159 66.0636 32.1867H66.2636ZM66.8278 29.6463C67.2044 28.8721 67.7164 28.2245 68.3639 27.7023L68.2384 27.5466C67.5672 28.0879 67.037 28.759 66.648 29.5588L66.8278 29.6463ZM68.3639 27.7023C69.0125 27.1793 69.7772 26.7808 70.6597 26.5077L70.6006 26.3166C69.6964 26.5965 68.9086 27.0062 68.2384 27.5466L68.3639 27.7023ZM70.6611 26.5072C71.5651 26.2129 72.5223 26.0655 73.5334 26.0655V25.8655C72.5026 25.8655 71.5244 26.0158 70.5992 26.3171L70.6611 26.5072ZM73.5334 26.0655C75.0532 26.0655 76.3892 26.3293 77.5438 26.8541L77.6265 26.672C76.4415 26.1334 75.0763 25.8655 73.5334 25.8655V26.0655ZM77.5438 26.8541C78.7026 27.3808 79.778 28.1187 80.7702 29.0686L80.9085 28.9241C79.9013 27.9598 78.8074 27.2088 77.6265 26.672L77.5438 26.8541ZM80.7682 28.9261L78.4073 31.3189L78.5496 31.4594L80.9105 29.0666L80.7682 28.9261ZM78.5502 31.3195C77.8399 30.5877 77.0631 30.0476 76.2193 29.7014L76.1434 29.8865C76.9587 30.2209 77.7132 30.7443 78.4067 31.4588L78.5502 31.3195ZM76.2214 29.7023C75.3768 29.3341 74.3949 29.1516 73.2782 29.1516V29.3516C74.3734 29.3516 75.327 29.5306 76.1414 29.8856L76.2214 29.7023ZM73.2782 29.1516C71.9491 29.1516 70.9614 29.4296 70.3388 30.0078L70.4749 30.1544C71.0433 29.6265 71.9698 29.3516 73.2782 29.3516V29.1516ZM70.3375 30.009C69.7452 30.5794 69.4454 31.2535 69.4454 32.0272H69.6454C69.6454 31.312 69.9199 30.6887 70.4762 30.1531L70.3375 30.009ZM69.4454 32.0272C69.4454 32.4234 69.5225 32.7889 69.6781 33.1223L69.8594 33.0377C69.7172 32.7331 69.6454 32.3967 69.6454 32.0272H69.4454ZM69.6793 33.1247C69.837 33.4402 70.1042 33.7383 70.4737 34.0209L70.5952 33.862C70.2415 33.5915 69.9982 33.3154 69.8582 33.0353L69.6793 33.1247ZM70.4768 34.0231C70.8472 34.2846 71.355 34.5432 71.9968 34.8L72.071 34.6143C71.4367 34.3605 70.9448 34.1087 70.5921 33.8597L70.4768 34.0231ZM71.9968 34.8C72.6389 35.0568 73.4399 35.3237 74.3989 35.6008L74.4544 35.4086C73.4992 35.1327 72.705 34.8679 72.071 34.6143L71.9968 34.8ZM74.3973 35.6003C75.5009 35.9399 76.4869 36.2898 77.3554 36.6499L77.432 36.4652C76.5565 36.1021 75.5645 35.7502 74.4561 35.4091L74.3973 35.6003ZM77.3562 36.6502C78.2419 37.0087 78.9876 37.4399 79.5951 37.9426L79.7227 37.7885C79.0965 37.2704 78.3322 36.8295 77.4313 36.4648L77.3562 36.6502ZM79.5951 37.9426C80.2007 38.4438 80.6591 39.0379 80.9716 39.7255L81.1537 39.6427C80.8281 38.9265 80.3507 38.3083 79.7227 37.7885L79.5951 37.9426ZM80.9727 39.7277C81.3048 40.4127 81.4731 41.2477 81.4731 42.2364H81.6731C81.6731 41.2257 81.5011 40.3592 81.1526 39.6405L80.9727 39.7277ZM96.3194 36.7171L96.2476 36.7867L96.3249 36.8664L96.3961 36.7812L96.3194 36.7171ZM94.3094 35.1857L94.2623 35.274L94.2659 35.2757L94.3094 35.1857ZM89.3644 36.1747L89.4456 36.233L89.4462 36.2322L89.3644 36.1747ZM88.5668 42.5235L88.4696 42.5471L88.4698 42.5478L88.5668 42.5235ZM89.3325 44.3101L89.2492 44.3656L89.2504 44.3672L89.3325 44.3101ZM90.5767 45.4587L90.5275 45.5457L90.5291 45.5466L90.5767 45.4587ZM94.3094 45.363L94.3633 45.4472L94.3642 45.4467L94.3094 45.363ZM96.128 43.7997L96.1981 43.7284L96.1263 43.6577L96.0561 43.7301L96.128 43.7997ZM98.2336 45.8734L98.3136 45.9334L98.366 45.8635L98.3038 45.8022L98.2336 45.8734ZM97.1808 47.0858L97.2495 47.1585L97.2515 47.1565L97.1808 47.0858ZM95.8727 48.0748L95.9236 48.1609L95.9247 48.1602L95.8727 48.0748ZM94.2775 48.7448L94.2501 48.6486L94.2775 48.7448ZM89.3644 48.3938L89.3205 48.4837L89.3231 48.4849L89.3644 48.3938ZM87.0673 46.6391L86.9904 46.7032L86.9924 46.7054L87.0673 46.6391ZM85.5359 43.8954L85.4412 43.9276L85.4418 43.9293L85.5359 43.8954ZM85.5678 36.6213L85.6621 36.6546L85.5678 36.6213ZM87.1311 33.8776L87.206 33.9439L87.2069 33.9429L87.1311 33.8776ZM89.4601 32.1548L89.4995 32.2467L89.5013 32.2459L89.4601 32.1548ZM95.6175 32.2824L95.572 32.3715L95.5743 32.3726L95.6175 32.2824ZM98.2655 34.3881L98.3422 34.4522L98.396 34.3879L98.342 34.3237L98.2655 34.3881ZM96.3912 36.6474C95.705 35.9398 95.0257 35.4212 94.353 35.0957L94.2659 35.2757C94.9118 35.5882 95.5726 36.0905 96.2476 36.7867L96.3912 36.6474ZM94.3565 35.0974C93.7035 34.7492 92.996 34.5752 92.2357 34.5752V34.7752C92.9642 34.7752 93.6392 34.9416 94.2624 35.2739L94.3565 35.0974ZM92.2357 34.5752C90.9905 34.5752 90.003 35.0911 89.2825 36.1172L89.4462 36.2322C90.1295 35.2589 91.0562 34.7752 92.2357 34.7752V34.5752ZM89.2831 36.1164C88.5648 37.1177 88.2115 38.4914 88.2115 40.2265H88.4115C88.4115 38.5159 88.7602 37.1885 89.4456 36.233L89.2831 36.1164ZM88.2115 40.2265C88.2115 41.0627 88.2973 41.8365 88.4696 42.5471L88.664 42.5C88.4959 41.8068 88.4115 41.0492 88.4115 40.2265H88.2115ZM88.4698 42.5478C88.6423 43.2379 88.9017 43.8444 89.2493 44.3656L89.4157 44.2547C89.0826 43.755 88.8316 43.1703 88.6638 42.4993L88.4698 42.5478ZM89.2504 44.3672C89.5987 44.868 90.0245 45.2614 90.5275 45.5457L90.6259 45.3716C90.1506 45.103 89.7468 44.7307 89.4145 44.253L89.2504 44.3672ZM90.5291 45.5466C91.056 45.832 91.6577 45.9734 92.3314 45.9734V45.7734C91.6864 45.7734 91.1183 45.6383 90.6243 45.3707L90.5291 45.5466ZM92.3314 45.9734C93.1328 45.9734 93.812 45.8001 94.3633 45.4472L94.2555 45.2787C93.7435 45.6065 93.104 45.7734 92.3314 45.7734V45.9734ZM94.3642 45.4467C94.9254 45.0797 95.5373 44.5531 96.1998 43.8693L96.0561 43.7301C95.3999 44.4075 94.7995 44.9231 94.2547 45.2793L94.3642 45.4467ZM96.0578 43.8709L98.1634 45.9447L98.3038 45.8022L96.1981 43.7284L96.0578 43.8709ZM98.1536 45.8134C97.8375 46.235 97.4896 46.6355 97.1101 47.0151L97.2515 47.1565C97.6376 46.7703 97.9917 46.3627 98.3136 45.9334L98.1536 45.8134ZM97.1121 47.0131C96.7348 47.3694 96.3045 47.6949 95.8207 47.9894L95.9247 48.1602C96.4194 47.8591 96.8611 47.5253 97.2494 47.1585L97.1121 47.0131ZM95.8219 47.9887C95.3622 48.2603 94.8385 48.4805 94.2501 48.6486L94.305 48.8409C94.9076 48.6687 95.4474 48.4423 95.9236 48.1609L95.8219 47.9887ZM94.2501 48.6486C93.6653 48.8157 92.9942 48.9 92.2357 48.9V49.1C93.0086 49.1 93.6987 49.0141 94.305 48.8409L94.2501 48.6486ZM92.2357 48.9C91.2284 48.9 90.2854 48.7007 89.4056 48.3027L89.3231 48.4849C90.2299 48.8951 91.2012 49.1 92.2357 49.1V48.9ZM89.4082 48.3039C88.5483 47.8845 87.793 47.3077 87.1422 46.5728L86.9924 46.7054C87.6603 47.4594 88.4364 48.0524 89.3205 48.4837L89.4082 48.3039ZM87.1441 46.5751C86.5144 45.8195 86.0094 44.9155 85.63 43.8615L85.4418 43.9293C85.8281 45.0022 86.344 45.9274 86.9905 46.7031L87.1441 46.5751ZM85.6306 43.8632C85.2731 42.8117 85.0936 41.6318 85.0936 40.3222H84.8936C84.8936 41.65 85.0756 42.8521 85.4412 43.9276L85.6306 43.8632ZM85.0936 40.3222C85.0936 38.9488 85.2837 37.7267 85.6621 36.6546L85.4735 36.5881C85.0862 37.6854 84.8936 38.9306 84.8936 40.3222H85.0936ZM85.6621 36.6546C86.0413 35.5802 86.5564 34.6773 87.206 33.9439L87.0562 33.8113C86.3871 34.5668 85.86 35.4931 85.4735 36.5881L85.6621 36.6546ZM87.2069 33.9429C87.8567 33.1883 88.6207 32.6233 89.4995 32.2467L89.4207 32.0629C88.5128 32.452 87.7242 33.0356 87.0553 33.8124L87.2069 33.9429ZM89.5013 32.2459C90.3811 31.8479 91.3241 31.6486 92.3314 31.6486V31.4486C91.2969 31.4486 90.3256 31.6535 89.4189 32.0637L89.5013 32.2459ZM92.3314 31.6486C93.5515 31.6486 94.6309 31.8905 95.572 32.3715L95.663 32.1934C94.6899 31.696 93.5785 31.4486 92.3314 31.4486V31.6486ZM95.5743 32.3726C96.5383 32.8337 97.41 33.5261 98.189 34.4524L98.342 34.3237C97.5471 33.3784 96.6534 32.667 95.6606 32.1922L95.5743 32.3726ZM98.1888 34.324L96.2426 36.6529L96.3961 36.7812L98.3422 34.4522L98.1888 34.324ZM115.489 43.9273L115.583 43.9606L115.584 43.96L115.489 43.9273ZM113.894 46.7029L113.968 46.7704L113.969 46.7694L113.894 46.7029ZM111.501 48.4257L111.54 48.518L111.541 48.5172L111.501 48.4257ZM105.567 48.3938L105.524 48.4841L105.526 48.4849L105.567 48.3938ZM103.238 46.6072L103.314 46.542L103.238 46.6072ZM101.675 43.8635L101.58 43.8957L101.581 43.8974L101.675 43.8635ZM101.707 36.6213L101.801 36.6546L101.707 36.6213ZM103.27 33.8776L103.195 33.8112L103.195 33.8113L103.27 33.8776ZM105.631 32.1548L105.67 32.2467L105.671 32.2463L105.631 32.1548ZM111.565 32.1867L111.523 32.2774L111.524 32.2782L111.565 32.1867ZM113.926 33.9095L113.851 33.9758L113.852 33.977L113.926 33.9095ZM115.489 36.6532L115.394 36.6849L115.395 36.6871L115.489 36.6532ZM111.597 36.2066L111.516 36.2655L111.517 36.2674L111.597 36.2066ZM105.503 36.2066L105.422 36.1488L105.421 36.1491L105.503 36.2066ZM105.599 44.4378L105.52 44.4994L105.521 44.5002L105.599 44.4378ZM111.629 44.2463L111.709 44.3058L111.71 44.3041L111.629 44.2463ZM115.963 40.1946C115.963 41.5679 115.773 42.8008 115.395 43.8946L115.584 43.96C115.971 42.8418 116.163 41.5862 116.163 40.1946H115.963ZM115.395 43.894C115.016 44.968 114.49 45.8816 113.819 46.6365L113.969 46.7694C114.659 45.9929 115.197 45.056 115.583 43.9606L115.395 43.894ZM113.82 46.6354C113.149 47.3697 112.362 47.9358 111.461 48.3343L111.541 48.5172C112.469 48.1074 113.278 47.5249 113.968 46.7704L113.82 46.6354ZM111.462 48.3335C110.561 48.7107 109.575 48.9 108.502 48.9V49.1C109.599 49.1 110.612 48.9064 111.54 48.518L111.462 48.3335ZM108.502 48.9C107.452 48.9 106.487 48.7005 105.608 48.3027L105.526 48.4849C106.433 48.8954 107.426 49.1 108.502 49.1V48.9ZM105.61 48.3035C104.729 47.8843 103.964 47.2973 103.314 46.542L103.162 46.6725C103.83 47.4485 104.618 48.0526 105.524 48.4841L105.61 48.3035ZM103.314 46.542C102.663 45.7866 102.148 44.8829 101.769 43.8296L101.581 43.8974C101.967 44.971 102.494 45.8965 103.162 46.6725L103.314 46.542ZM101.769 43.8313C101.412 42.7798 101.232 41.5999 101.232 40.2903H101.032C101.032 41.618 101.214 42.8202 101.58 43.8957L101.769 43.8313ZM101.232 40.2903C101.232 38.9384 101.422 37.7269 101.801 36.6546L101.612 36.5881C101.225 37.6852 101.032 38.9197 101.032 40.2903H101.232ZM101.801 36.6546C102.18 35.5802 102.695 34.6773 103.345 33.9439L103.195 33.8113C102.526 34.5668 101.999 35.4931 101.612 36.5881L101.801 36.6546ZM103.345 33.9441C104.016 33.1887 104.791 32.6235 105.67 32.2467L105.591 32.0629C104.684 32.4519 103.885 33.0351 103.195 33.8112L103.345 33.9441ZM105.671 32.2463C106.572 31.8481 107.547 31.6486 108.598 31.6486V31.4486C107.521 31.4486 106.518 31.6533 105.59 32.0633L105.671 32.2463ZM108.598 31.6486C109.648 31.6486 110.622 31.8585 111.523 32.2774L111.607 32.096C110.679 31.6642 109.675 31.4486 108.598 31.4486V31.6486ZM111.524 32.2782C112.426 32.6765 113.201 33.2422 113.851 33.9758L114.001 33.8432C113.332 33.088 112.533 32.5051 111.605 32.0953L111.524 32.2782ZM113.852 33.977C114.522 34.7098 115.036 35.6117 115.394 36.6849L115.584 36.6216C115.218 35.5254 114.691 34.5981 114 33.842L113.852 33.977ZM115.395 36.6871C115.773 37.7382 115.963 38.907 115.963 40.1946H116.163C116.163 38.8873 115.97 37.6952 115.583 36.6194L115.395 36.6871ZM112.845 40.2903C112.845 38.5535 112.459 37.1683 111.676 36.1458L111.517 36.2674C112.266 37.2442 112.645 38.5815 112.645 40.2903H112.845ZM111.678 36.1477C110.913 35.0992 109.84 34.5752 108.47 34.5752V34.7752C109.78 34.7752 110.792 35.2722 111.516 36.2655L111.678 36.1477ZM108.47 34.5752C107.183 34.5752 106.164 35.1013 105.422 36.1488L105.585 36.2644C106.289 35.27 107.248 34.7752 108.47 34.7752V34.5752ZM105.421 36.1491C104.704 37.1707 104.35 38.5222 104.35 40.1946H104.55C104.55 38.5489 104.899 37.2418 105.585 36.2641L105.421 36.1491ZM104.35 40.1946C104.35 42.0568 104.735 43.4966 105.52 44.4994L105.678 44.3761C104.931 43.4221 104.55 42.0331 104.55 40.1946H104.35ZM105.521 44.5002C106.306 45.4817 107.345 45.9734 108.63 45.9734V45.7734C107.404 45.7734 106.423 45.308 105.677 44.3753L105.521 44.5002ZM108.63 45.9734C109.263 45.9734 109.845 45.8202 110.371 45.5131L110.27 45.3404C109.776 45.6288 109.23 45.7734 108.63 45.7734V45.9734ZM110.371 45.5131C110.894 45.2083 111.34 44.8056 111.709 44.3058L111.548 44.1869C111.195 44.6655 110.769 45.0497 110.27 45.3404L110.371 45.5131ZM111.71 44.3041C112.079 43.7832 112.36 43.177 112.554 42.4868L112.362 42.4326C112.173 43.1037 111.901 43.6885 111.547 44.1885L111.71 44.3041ZM112.554 42.4868C112.749 41.7967 112.845 41.0644 112.845 40.2903H112.645C112.645 41.0476 112.551 41.7615 112.362 42.4326L112.554 42.4868ZM133.652 44.3101L133.747 44.3429L133.747 44.3423L133.652 44.3101ZM132.185 46.9262L132.11 46.8602L132.108 46.8615L132.185 46.9262ZM130.079 48.4895L130.04 48.3974L130.039 48.3977L130.079 48.4895ZM125.198 48.4257L125.243 48.3368L125.198 48.4257ZM123.379 47.0858L123.453 47.0182L123.279 46.8287V47.0858H123.379ZM123.379 53.1156L123.425 53.2043L123.479 53.1763V53.1156H123.379ZM120.125 54.8065H120.025V54.9711L120.171 54.8952L120.125 54.8065ZM120.125 31.8996V31.7996H120.025V31.8996H120.125ZM123.379 31.8996H123.479V31.7996H123.379V31.8996ZM123.379 33.4948H123.279V33.7187L123.446 33.5692L123.379 33.4948ZM125.357 32.1229L125.403 32.2118L125.405 32.2107L125.357 32.1229ZM130.27 32.0591L130.31 31.9673L130.27 32.0591ZM132.312 33.6543L132.234 33.7165L132.235 33.7179L132.312 33.6543ZM133.684 36.4618L133.588 36.4886L133.588 36.4907L133.684 36.4618ZM129.919 36.0152L129.836 36.0706L129.837 36.0719L129.919 36.0152ZM124.974 35.2495L125.029 35.3335L125.03 35.3323L124.974 35.2495ZM123.347 36.7171L123.268 36.6561L123.247 36.683V36.7171H123.347ZM123.347 43.7678H123.247V43.8011L123.267 43.8278L123.347 43.7678ZM124.049 44.5335L124.117 44.46L124.049 44.5335ZM124.974 45.2353L125.027 45.1505L124.974 45.2353ZM126.059 45.7777L126.023 45.871L126.028 45.8726L126.059 45.7777ZM129.983 44.6611L130.065 44.7188L130.066 44.7179L129.983 44.6611ZM134.095 40.5455C134.095 41.9838 133.915 43.2274 133.558 44.278L133.747 44.3423C134.113 43.266 134.295 41.9998 134.295 40.5455H134.095ZM133.558 44.2774C133.2 45.3095 132.716 46.1697 132.11 46.8602L132.26 46.9923C132.887 46.2791 133.382 45.3952 133.747 44.3429L133.558 44.2774ZM132.108 46.8615C131.523 47.5521 130.833 48.0635 130.04 48.3974L130.118 48.5817C130.941 48.235 131.656 47.7042 132.261 46.9909L132.108 46.8615ZM130.039 48.3977C129.265 48.7325 128.449 48.9 127.591 48.9V49.1C128.476 49.1 129.319 48.9271 130.119 48.5813L130.039 48.3977ZM127.591 48.9C126.755 48.9 125.974 48.7122 125.243 48.3368L125.152 48.5147C125.911 48.9049 126.724 49.1 127.591 49.1V48.9ZM125.243 48.3368C124.507 47.9583 123.911 47.5183 123.453 47.0182L123.306 47.1533C123.783 47.6741 124.399 48.1275 125.152 48.5147L125.243 48.3368ZM123.279 47.0858V53.1156H123.479V47.0858H123.279ZM123.333 53.0268L120.079 54.7177L120.171 54.8952L123.425 53.2043L123.333 53.0268ZM120.225 54.8065V31.8996H120.025V54.8065H120.225ZM120.125 31.9996H123.379V31.7996H120.125V31.9996ZM123.279 31.8996V33.4948H123.479V31.8996H123.279ZM123.446 33.5692C124.057 33.0216 124.709 32.5693 125.403 32.2118L125.311 32.034C124.602 32.3997 123.935 32.8619 123.312 33.4203L123.446 33.5692ZM125.405 32.2107C126.091 31.8368 126.871 31.6486 127.75 31.6486V31.4486C126.842 31.4486 126.028 31.6434 125.309 32.0351L125.405 32.2107ZM127.75 31.6486C128.63 31.6486 129.457 31.8162 130.231 32.1509L130.31 31.9673C129.51 31.6214 128.656 31.4486 127.75 31.4486V31.6486ZM130.231 32.1509C131.001 32.4842 131.669 33.0052 132.234 33.7165L132.391 33.5921C131.807 32.8571 131.113 32.3147 130.31 31.9673L130.231 32.1509ZM132.235 33.7179C132.82 34.4277 133.272 35.35 133.588 36.4886L133.78 36.4351C133.459 35.2766 132.996 34.3272 132.389 33.5907L132.235 33.7179ZM133.588 36.4907C133.925 37.606 134.095 38.9569 134.095 40.5455H134.295C134.295 38.9437 134.124 37.5722 133.78 36.4329L133.588 36.4907ZM131.009 40.6412C131.009 38.5086 130.679 36.9412 130.002 35.9584L129.837 36.0719C130.479 37.0034 130.809 38.52 130.809 40.6412H131.009ZM130.003 35.9597C129.345 34.973 128.387 34.4795 127.144 34.4795V34.6795C128.325 34.6795 129.218 35.1431 129.836 36.0706L130.003 35.9597ZM127.144 34.4795C126.337 34.4795 125.594 34.709 124.918 35.1667L125.03 35.3323C125.674 34.8967 126.377 34.6795 127.144 34.6795V34.4795ZM124.92 35.1654C124.252 35.5963 123.701 36.093 123.268 36.6561L123.427 36.778C123.844 36.2351 124.378 35.7535 125.029 35.3335L124.92 35.1654ZM123.247 36.7171V43.7678H123.447V36.7171H123.247ZM123.267 43.8278C123.463 44.0886 123.701 44.3483 123.981 44.6069L124.117 44.46C123.844 44.2082 123.615 43.9574 123.427 43.7078L123.267 43.8278ZM123.981 44.6069C124.263 44.8667 124.576 45.1044 124.921 45.3201L125.027 45.1505C124.692 44.9409 124.389 44.7107 124.117 44.46L123.981 44.6069ZM124.921 45.3201C125.267 45.5362 125.634 45.7198 126.023 45.8709L126.095 45.6845C125.718 45.5378 125.362 45.3598 125.027 45.1505L124.921 45.3201ZM126.028 45.8726C126.421 46.0038 126.836 46.0691 127.271 46.0691V45.8691C126.856 45.8691 126.463 45.8069 126.091 45.6828L126.028 45.8726ZM127.271 46.0691C128.491 46.0691 129.427 45.6207 130.065 44.7188L129.902 44.6033C129.306 45.4455 128.434 45.8691 127.271 45.8691V46.0691ZM130.066 44.7179C130.699 43.8002 131.009 42.4362 131.009 40.6412H130.809C130.809 42.4194 130.501 43.7353 129.901 44.6043L130.066 44.7179ZM151.879 40.8007L151.979 40.809L151.979 40.8084L151.879 40.8007ZM151.815 41.4388V41.5388H151.904L151.915 41.4512L151.815 41.4388ZM140.745 41.4388V41.3388H140.634L140.645 41.4493L140.745 41.4388ZM141.255 43.5125L141.347 43.4719L141.255 43.5125ZM142.212 44.9482L142.142 45.019L142.144 45.0209L142.212 44.9482ZM143.489 45.7777L143.451 45.8703L143.454 45.8717L143.489 45.7777ZM146.87 45.682L146.834 45.5889L146.833 45.5894L146.87 45.682ZM148.593 44.693L148.667 44.6251L148.605 44.558L148.532 44.6137L148.593 44.693ZM150.539 46.7986L150.608 46.8714L150.68 46.8035L150.613 46.7308L150.539 46.7986ZM148.051 48.4257L148.012 48.3335L148.051 48.4257ZM141.957 48.4257L141.917 48.5173L141.918 48.5176L141.957 48.4257ZM139.66 46.7348L139.735 46.6685L139.66 46.7348ZM138.097 43.9911L138.191 43.9578L138.097 43.9911ZM138.065 36.5256L138.16 36.5573L138.065 36.5256ZM139.564 33.8138L139.639 33.88L139.64 33.8789L139.564 33.8138ZM141.861 32.1229L141.823 32.0307L141.822 32.031L141.861 32.1229ZM147.955 32.2186L147.909 32.3076L147.91 32.3081L147.955 32.2186ZM150.156 34.0371L150.076 34.0971L150.077 34.0985L150.156 34.0371ZM151.464 36.7171L151.368 36.7432L151.368 36.7451L151.464 36.7171ZM148.593 38.727V38.827H148.701L148.693 38.7196L148.593 38.727ZM148.274 37.0999L148.178 37.1279L148.179 37.1315L148.274 37.0999ZM147.572 35.7599L147.649 35.6959L147.572 35.7599ZM146.36 34.8666L146.315 34.9562L146.32 34.9583L146.36 34.8666ZM141.989 35.6323L141.914 35.566L141.914 35.5662L141.989 35.6323ZM140.809 38.727L140.709 38.7159L140.697 38.827H140.809V38.727ZM151.811 39.9393C151.811 40.2347 151.801 40.5193 151.78 40.7931L151.979 40.8084C152 40.5292 152.011 40.2395 152.011 39.9393H151.811ZM151.78 40.7924C151.758 41.0469 151.737 41.2581 151.716 41.4264L151.915 41.4512C151.936 41.2792 151.958 41.065 151.979 40.809L151.78 40.7924ZM151.815 41.3388H140.745V41.5388H151.815V41.3388ZM140.645 41.4493C140.731 42.265 140.903 42.967 141.164 43.5532L141.347 43.4719C141.097 42.9096 140.929 42.229 140.844 41.4283L140.645 41.4493ZM141.164 43.5532C141.423 44.1369 141.749 44.6261 142.142 45.0189L142.283 44.8775C141.91 44.5046 141.598 44.0368 141.347 43.4719L141.164 43.5532ZM142.144 45.0209C142.535 45.3906 142.971 45.674 143.451 45.8703L143.526 45.6852C143.07 45.4986 142.655 45.229 142.281 44.8755L142.144 45.0209ZM143.454 45.8717C143.934 46.0459 144.434 46.1329 144.956 46.1329V45.9329C144.457 45.9329 143.979 45.8498 143.523 45.6837L143.454 45.8717ZM144.956 46.1329C145.669 46.1329 146.32 46.0141 146.908 45.7746L146.833 45.5894C146.272 45.8179 145.647 45.9329 144.956 45.9329V46.1329ZM146.907 45.7751C147.512 45.5374 148.094 45.2028 148.654 44.7722L148.532 44.6137C147.986 45.0339 147.42 45.3587 146.834 45.5889L146.907 45.7751ZM148.52 44.7609L150.466 46.8665L150.613 46.7308L148.667 44.6251L148.52 44.7609ZM150.471 46.7259C149.735 47.4198 148.915 47.9554 148.012 48.3335L148.089 48.518C149.015 48.1303 149.855 47.5812 150.608 46.8714L150.471 46.7259ZM148.012 48.3335C147.113 48.71 146.031 48.9 144.765 48.9V49.1C146.05 49.1 147.16 48.9072 148.089 48.518L148.012 48.3335ZM144.765 48.9C143.8 48.9 142.877 48.7113 141.997 48.3338L141.918 48.5176C142.824 48.9059 143.773 49.1 144.765 49.1V48.9ZM141.997 48.3342C141.139 47.9574 140.385 47.4026 139.735 46.6685L139.585 46.8011C140.254 47.5559 141.031 48.1284 141.917 48.5173L141.997 48.3342ZM139.735 46.6685C139.085 45.9351 138.57 45.0323 138.191 43.9578L138.003 44.0244C138.389 45.1194 138.916 46.0457 139.585 46.8011L139.735 46.6685ZM138.191 43.9578C137.813 42.8857 137.623 41.6636 137.623 40.2903H137.423C137.423 41.6819 137.615 42.9271 138.003 44.0244L138.191 43.9578ZM137.623 40.2903C137.623 38.8734 137.802 37.6296 138.16 36.5573L137.97 36.494C137.604 37.5911 137.423 38.857 137.423 40.2903H137.623ZM138.16 36.5573C138.518 35.4829 139.012 34.5914 139.639 33.88L139.489 33.7476C138.841 34.4825 138.335 35.3989 137.97 36.494L138.16 36.5573ZM139.64 33.8789C140.269 33.146 141.022 32.5916 141.901 32.2148L141.822 32.031C140.915 32.4199 140.136 32.9928 139.488 33.7487L139.64 33.8789ZM141.9 32.2152C142.801 31.8379 143.788 31.6486 144.86 31.6486V31.4486C143.764 31.4486 142.751 31.6422 141.823 32.0307L141.9 32.2152ZM144.86 31.6486C146.039 31.6486 147.054 31.8696 147.909 32.3076L148.001 32.1296C147.112 31.6743 146.064 31.4486 144.86 31.4486V31.6486ZM147.91 32.3081C148.79 32.7481 149.512 33.3444 150.076 34.0971L150.236 33.9771C149.652 33.1985 148.906 32.5825 148 32.1292L147.91 32.3081ZM150.077 34.0985C150.664 34.8528 151.095 35.7339 151.368 36.7432L151.561 36.6909C151.281 35.6584 150.84 34.7528 150.235 33.9757L150.077 34.0985ZM151.368 36.7451C151.663 37.7563 151.811 38.821 151.811 39.9393H152.011C152.011 38.8032 151.861 37.7196 151.56 36.6891L151.368 36.7451ZM148.693 38.7196C148.65 38.1377 148.542 37.5871 148.369 37.0683L148.179 37.1315C148.347 37.6336 148.451 38.1678 148.493 38.7344L148.693 38.7196ZM148.37 37.0719C148.218 36.5491 147.977 36.09 147.649 35.6959L147.495 35.824C147.805 36.1955 148.033 36.6297 148.178 37.1279L148.37 37.0719ZM147.649 35.6959C147.319 35.3003 146.902 34.9934 146.4 34.7749L146.32 34.9583C146.796 35.1653 147.187 35.4539 147.495 35.824L147.649 35.6959ZM146.405 34.7772C145.919 34.5345 145.329 34.4157 144.637 34.4157V34.6157C145.307 34.6157 145.865 34.7308 146.315 34.9561L146.405 34.7772ZM144.637 34.4157C143.506 34.4157 142.595 34.7976 141.914 35.566L142.064 35.6986C142.702 34.9782 143.556 34.6157 144.637 34.6157V34.4157ZM141.914 35.5662C141.258 36.3098 140.86 37.3634 140.709 38.7159L140.908 38.738C141.056 37.4106 141.444 36.4012 142.064 35.6985L141.914 35.5662ZM140.809 38.827H148.593V38.627H140.809V38.827Z" fill="#282F4E"/>
</svg>
